HIERARCHY
ROOT Hips
{
	OFFSET 0.00000 0.00000 0.00000
	CHANNELS 6 Xposition Yposition Zposition Zrotation Yrotation Xrotation 
	JOINT LHipJoint
	{
		OFFSET 0 0 0
		CHANNELS 3 Zrotation Yrotation Xrotation
		JOINT LeftHip
		{
			OFFSET 1.78158 -1.79992 1.25746
			CHANNELS 3 Zrotation Yrotation Xrotation
			JOINT LeftKnee
			{
				OFFSET 2.48433 -6.82566 0.00000
				CHANNELS 3 Zrotation Yrotation Xrotation
				JOINT LeftAnkle
				{
					OFFSET 2.69722 -7.41057 0.00000
					CHANNELS 3 Zrotation Yrotation Xrotation
					JOINT LeftToe
					{
						OFFSET 0.10733 -0.29489 1.75071
						CHANNELS 3 Zrotation Yrotation Xrotation
						End Site
						{
							OFFSET 0.00000 -0.00000 0.90224
						}
					}
				}
			}
		}
	}
	JOINT RHipJoint
	{
		OFFSET 0 0 0
		CHANNELS 3 Zrotation Yrotation Xrotation
		JOINT RightHip
		{
			OFFSET -1.91234 -1.79993 1.25746
			CHANNELS 3 Zrotation Yrotation Xrotation
			JOINT RightKnee
			{
				OFFSET -2.33122 -6.40498 0.00000
				CHANNELS 3 Zrotation Yrotation Xrotation
				JOINT RightAnkle
				{
					OFFSET -2.75667 -7.57390 0.00000
					CHANNELS 3 Zrotation Yrotation Xrotation
					JOINT RightToe
					{
						OFFSET -0.15946 -0.43811 1.78925
						CHANNELS 3 Zrotation Yrotation Xrotation
						End Site
						{
							OFFSET -0.00000 -0.00000 0.93158
						}
					}
				}
			}
		}
	}
	JOINT lowerback
	{
		OFFSET 0 0 0
		CHANNELS 3 Zrotation Yrotation Xrotation
		JOINT Chest
		{
			OFFSET -0.02267 2.03993 -0.26238
			CHANNELS 3 Zrotation Yrotation Xrotation
			JOINT Chest2
			{
				OFFSET 0.02263 2.06220 -0.00892
				CHANNELS 3 Zrotation Yrotation Xrotation
				JOINT lowerneck
				{
					OFFSET 0 0 0
					CHANNELS 3 Zrotation Yrotation Xrotation
					JOINT Neck
					{
						OFFSET -0.06177 1.95978 0.28606
						CHANNELS 3 Zrotation Yrotation Xrotation
						JOINT Head
						{
							OFFSET 0.08482 1.96576 -0.43252
							CHANNELS 3 Zrotation Yrotation Xrotation
							End Site
							{
								OFFSET 0.02787 2.02739 -0.18071
							}
						}
					}
				}
				JOINT LeftCollar
				{
					OFFSET 0 0 0
					CHANNELS 3 Zrotation Yrotation Xrotation
					JOINT LeftShoulder
					{
						OFFSET 3.80978 1.64906 0.29973
CHANNELS 3 Zrotation Xrotation Yrotation
						JOINT LeftElbow
						{
OFFSET 0 -4.930420 0.000000
CHANNELS 3 Zrotation Xrotation Yrotation
							JOINT LeftWrist
							{
OFFSET 0 -3.681770 0.000000
CHANNELS 3 Zrotation Xrotation Yrotation
								JOINT lhand
								{
									OFFSET 0 0 0
CHANNELS 3 Zrotation Xrotation Yrotation
									JOINT LFingers
									{
OFFSET 0 -0.721480 0.000000
CHANNELS 3 Zrotation Xrotation Yrotation
										End Site
										{
OFFSET 0 -0.581680 0.000000
										}
									}
								}
								JOINT LThumb
								{
OFFSET 0 0.000000 0.000000
CHANNELS 3 Zrotation Xrotation Yrotation
									End Site
									{
OFFSET 0 -0.590560 0.590560
									}
								}
							}
						}
					}
				}
				JOINT RightCollar
				{
					OFFSET 0 0 0
					CHANNELS 3 Zrotation Yrotation Xrotation
					JOINT RightShoulder
					{
						OFFSET -3.49270 1.85636 0.09297
CHANNELS 3 Zrotation Xrotation Yrotation
						JOINT RightElbow
						{
OFFSET 0 -5.079050 -0.000000
CHANNELS 3 Zrotation Xrotation Yrotation
							JOINT RightWrist
							{
OFFSET 0 -3.543940 0.000000
CHANNELS 3 Zrotation Xrotation Yrotation
								JOINT rhand
								{
									OFFSET 0 0 0
CHANNELS 3 Zrotation Xrotation Yrotation
									JOINT RFingers
									{
OFFSET 0 -0.681160 0.000000
CHANNELS 3 Zrotation Xrotation Yrotation
										End Site
										{
OFFSET 0 -0.549170 0.000000
										}
									}
								}
								JOINT RThumb
								{
OFFSET 0 0.000000 0.000000
CHANNELS 3 Zrotation Xrotation Yrotation
									End Site
									{
OFFSET 0 -0.557550 0.557550
									}
								}
							}
						}
					}
				}
			}
		}
	}
}
MOTION
Frames: 11
Frame Time: 0.008333333333333333
-11.766400 18.138600 -17.605000 -93.458400 86.223800 -89.103600 0.000000 0.000000 0.000000 -11.950500 -11.728100 -10.642100 1.712700 8.240100 23.445700 1.047200 -4.474800 -18.365000 1.451800 7.616100 21.554100 0.000000 0.000000 0.000000 14.751100 -2.825500 0.243100 0.000000 0.000000 -0.000000 0.322900 -14.439600 -16.388000 -0.188800 2.798200 -7.717500 0.323300 0.302700 9.194400 2.246900 0.601700 -0.992500 2.084200 0.335400 -6.227900 -7.337600 -5.483400 -21.878300 6.555000 -7.020300 33.502100 2.760600 -2.667600 16.179900 -0.000000 -0.000000 0.000000 2.911200 2.555900 -19.510600 13.954300 -22.669400 2.810500 31.197400 -8.229500 -8.293700 0.000000 0.000000 0.000000 -7.125000 0.000000 0.000000 3.785400 39.623800 0.502400 -0.000000 -0.000000 0.000000 -5.426500 1.653000 6.868900 -17.986800 -28.140300 -4.543000 -18.415900 27.535400 12.685000 0.000000 0.000000 0.000000 7.125000 0.000000 -0.000000 8.064000 43.180700 0.364600
-11.733373 18.125316 -17.601100 -92.367787 86.186813 -88.101404 0.000000 0.000000 0.000000 -11.925456 -11.611471 -10.621260 1.761874 8.350819 23.785229 1.069868 -4.613671 -18.555361 1.384833 7.444446 21.039749 0.000000 0.000000 0.000000 14.770416 -2.704361 0.121108 0.000000 0.000000 0.000000 0.270374 -13.918668 -16.258087 -0.211529 2.958337 -8.162995 0.385393 0.339931 9.144860 2.205342 0.654652 -1.009988 1.997977 0.358312 -6.218638 -7.369042 -5.502594 -21.863554 6.549455 -7.035046 33.548411 2.762489 -2.677471 16.202385 0.000000 0.000000 0.000000 2.963970 2.454687 -19.807658 14.214919 -23.040372 2.912200 31.211415 -8.567689 -8.279319 0.000000 0.000000 0.000000 -7.125000 0.000000 0.000000 3.797953 39.608383 0.505508 0.000000 0.000000 0.000000 -5.413033 1.762500 7.231584 -17.953712 -28.097889 -4.527401 -18.416083 27.443449 12.688108 0.000000 0.000000 0.000000 7.125000 0.000000 0.000000 8.064548 43.183990 0.363930
-11.700675 18.112492 -17.595407 -91.297470 86.159579 -87.119962 0.000000 0.000000 0.000000 -11.906382 -11.481697 -10.581459 1.804619 8.446535 24.079007 1.089933 -4.734958 -18.723436 1.313426 7.257571 20.481505 0.000000 0.000000 0.000000 14.784134 -2.593042 0.025907 0.000000 0.000000 0.000000 0.213999 -13.303148 -16.052154 -0.202218 2.873554 -7.928274 0.435566 0.378103 9.096894 2.162166 0.707386 -1.027280 1.916872 0.381464 -6.210076 -7.413585 -5.522270 -21.857074 6.555063 -7.049093 33.597717 2.771726 -2.687015 16.229594 0.000000 0.000000 0.000000 3.007598 2.350172 -20.083502 14.475450 -23.409747 3.014775 31.230329 -8.889213 -8.258531 0.000000 0.000000 0.000000 -7.125000 0.000000 0.000000 3.814857 39.585947 0.509884 0.000000 0.000000 0.000000 -5.408993 1.878298 7.647019 -17.916972 -28.050755 -4.510117 -18.412438 27.329694 12.707880 0.000000 0.000000 0.000000 7.125000 0.000000 0.000000 8.071942 43.204121 0.360198
-11.668562 18.100487 -17.586511 -90.263405 86.149768 -86.175593 0.000000 0.000000 0.000000 -11.897973 -11.328446 -10.507789 1.835879 8.515452 24.291060 1.105350 -4.824837 -18.851704 1.234088 7.043507 19.844857 0.000000 0.000000 0.000000 14.787851 -2.499264 -0.021439 0.000000 0.000000 0.000000 0.150749 -12.518673 -15.710431 -0.135677 2.351281 -6.478511 0.464449 0.417954 9.051742 2.116100 0.759729 -1.044220 1.844908 0.405045 -6.202763 -7.481527 -5.542805 -21.865361 6.580595 -7.061889 33.652376 2.794089 -2.695972 16.265241 0.000000 0.000000 0.000000 3.034896 2.239758 -20.321452 14.735824 -23.776270 3.118913 31.257993 -9.180969 -8.226296 0.000000 0.000000 0.000000 -7.125000 0.000000 0.000000 3.839536 39.550970 0.516526 0.000000 0.000000 0.000000 -5.421789 2.005348 8.156678 -17.873709 -27.995182 -4.489826 -18.401958 27.176991 12.757420 0.000000 0.000000 0.000000 7.125000 0.000000 0.000000 8.091563 43.254331 0.350996
-11.637193 18.089577 -17.573984 -89.232489 86.171188 -85.236298 0.000000 0.000000 0.000000 -11.912833 -11.166666 -10.422265 1.863071 8.574703 24.473852 1.118885 -4.910692 -18.963394 1.155495 6.822138 19.190538 0.000000 0.000000 0.000000 14.771098 -2.427136 -0.009081 0.000000 0.000000 0.000000 0.101626 -11.721775 -15.208141 -0.068612 1.467894 -4.041065 0.456373 0.462005 9.010613 2.065440 0.813166 -1.060591 1.788865 0.430289 -6.197507 -7.565303 -5.565483 -21.884977 6.611638 -7.073023 33.709134 2.822007 -2.705411 16.305743 0.000000 0.000000 0.000000 3.045662 2.125320 -20.533509 14.992000 -24.134133 3.223138 31.284958 -9.438389 -8.186976 0.000000 0.000000 0.000000 -7.125000 0.000000 0.000000 3.863646 39.507727 0.523911 0.000000 0.000000 0.000000 -5.430780 2.123737 8.668437 -17.816055 -27.920976 -4.462799 -18.367726 27.068028 12.840159 0.000000 0.000000 0.000000 7.125000 0.000000 0.000000 8.139527 43.336253 0.336459
-11.606149 18.079213 -17.559684 -88.202591 86.209181 -84.298867 0.000000 0.000000 0.000000 -11.940754 -11.001476 -10.328431 1.887654 8.627947 24.638339 1.131392 -4.993843 -19.066053 1.078409 6.600548 18.537388 0.000000 0.000000 0.000000 14.743544 -2.366030 0.032568 0.000000 0.000000 0.000000 0.060694 -10.937710 -14.631914 -0.008061 0.436564 -1.199429 0.429610 0.508098 8.971076 2.012078 0.867028 -1.076753 1.740493 0.456304 -6.193120 -7.655047 -5.588958 -21.909500 6.643483 -7.082990 33.766540 2.851558 -2.714996 16.348041 0.000000 0.000000 0.000000 3.048904 2.009688 -20.735270 15.246076 -24.487670 3.327384 31.310713 -9.679428 -8.144949 0.000000 0.000000 0.000000 -7.125000 0.000000 0.000000 3.886705 39.461243 0.531481 0.000000 0.000000 0.000000 -5.435209 2.235547 9.169046 -17.749574 -27.835323 -4.431665 -18.321386 26.990115 12.937103 0.000000 0.000000 0.000000 7.125000 0.000000 0.000000 8.201397 43.431524 0.319702
-11.575498 18.070255 -17.541220 -87.170050 86.298877 -83.359860 0.000000 0.000000 0.000000 -12.015765 -10.835611 -10.190657 1.900084 8.654637 24.720966 1.140410 -5.063491 -19.138444 1.015950 6.410858 17.981905 0.000000 0.000000 0.000000 14.682853 -2.335136 0.144262 0.000000 0.000000 0.000000 0.051493 -10.366872 -13.925556 -0.028414 -0.666723 1.833605 0.352832 0.558918 8.931651 1.947913 0.920833 -1.093083 1.709111 0.483724 -6.189463 -7.741696 -5.611869 -21.939480 6.658899 -7.086768 33.821808 2.874469 -2.724076 16.388989 0.000000 0.000000 0.000000 3.039824 1.898725 -20.935624 15.494752 -24.830125 3.431461 31.325215 -9.885753 -8.103879 0.000000 0.000000 0.000000 -7.125000 0.000000 0.000000 3.899806 39.414871 0.537758 0.000000 0.000000 0.000000 -5.402730 2.309156 9.525515 -17.644949 -27.700047 -4.382978 -18.241683 27.078958 13.047943 0.000000 0.000000 0.000000 7.125000 0.000000 0.000000 8.296516 43.537429 0.301483
-11.544822 18.061882 -17.521191 -86.179342 86.412728 -82.462528 0.000000 0.000000 0.000000 -12.114639 -10.681612 -10.030931 1.907551 8.670709 24.770706 1.148420 -5.128070 -19.202526 0.964880 6.253631 17.522247 0.000000 0.000000 0.000000 14.608465 -2.320885 0.281571 0.000000 0.000000 0.000000 0.053945 -9.942027 -13.226817 -0.069178 -1.609948 4.430942 0.260207 0.609207 8.889545 1.876449 0.971639 -1.109812 1.679535 0.510057 -6.184746 -7.817118 -5.631569 -21.968345 6.660300 -7.084892 33.874103 2.890267 -2.731536 16.426222 0.000000 0.000000 0.000000 3.029179 1.794001 -21.142587 15.740507 -25.166978 3.535219 31.333559 -10.079072 -8.066127 0.000000 0.000000 0.000000 -7.125000 0.000000 0.000000 3.907492 39.371791 0.542946 0.000000 0.000000 0.000000 -5.346973 2.360601 9.786292 -17.514602 -27.530928 -4.322638 -18.157813 27.258477 13.147635 0.000000 0.000000 0.000000 7.125000 0.000000 0.000000 8.393228 43.631230 0.285520
-11.514111 18.054265 -17.499133 -85.242833 86.557875 -81.619189 0.000000 0.000000 0.000000 -12.244431 -10.542985 -9.842764 1.908587 8.673024 24.777835 1.155123 -5.186080 -19.255844 0.928562 6.138464 17.186740 0.000000 0.000000 0.000000 14.516332 -2.328197 0.452067 0.000000 0.000000 0.000000 0.071494 -9.706331 -12.537948 -0.136389 -2.345798 6.463791 0.147051 0.658808 8.843966 1.795528 1.018559 -1.127057 1.652297 0.534979 -6.178652 -7.877992 -5.647107 -21.995766 6.643543 -7.075691 33.922546 2.896848 -2.736898 16.458639 0.000000 0.000000 0.000000 3.016504 1.697358 -21.358114 15.982480 -25.496575 3.638565 31.333925 -10.255540 -8.032674 0.000000 0.000000 0.000000 -7.125000 0.000000 0.000000 3.908162 39.332976 0.546724 0.000000 0.000000 0.000000 -5.261054 2.383330 9.923091 -17.350931 -27.317960 -4.247201 -18.068543 27.555473 13.232883 0.000000 0.000000 0.000000 7.125000 0.000000 0.000000 8.492004 43.709348 0.272479
-11.482915 18.047374 -17.475186 -84.579767 86.733523 -81.050406 0.000000 0.000000 0.000000 -12.405255 -10.448366 -9.615624 1.903523 8.662171 24.744200 1.161438 -5.231454 -19.306693 0.915097 6.095289 17.061156 0.000000 0.000000 0.000000 14.412869 -2.372159 0.654177 0.000000 0.000000 0.000000 0.099017 -9.701327 -11.975246 -0.164434 -2.609756 7.194351 0.031910 0.699356 8.792722 1.701050 1.052407 -1.144398 1.613827 0.553220 -6.168879 -7.911851 -5.652043 -22.018006 6.604032 -7.052837 33.962420 2.891228 -2.736596 16.481373 0.000000 0.000000 0.000000 3.001603 1.612141 -21.569138 16.212591 -25.807435 3.738376 31.328190 -10.403443 -8.003384 0.000000 0.000000 0.000000 -7.125000 0.000000 0.000000 3.903459 39.298421 0.549388 0.000000 0.000000 0.000000 -5.150978 2.382820 9.968339 -17.141799 -27.043749 -4.151914 -18.010501 27.924607 13.282983 0.000000 0.000000 0.000000 7.125000 0.000000 0.000000 8.555146 43.754642 0.264959
-11.451501 18.040756 -17.450517 -84.100915 86.918284 -80.667069 0.000000 0.000000 0.000000 -12.575181 -10.376414 -9.371814 1.896367 8.646800 24.696582 1.167822 -5.269858 -19.358540 0.911009 6.081942 17.022433 0.000000 0.000000 0.000000 14.308160 -2.433564 0.868100 0.000000 0.000000 0.000000 0.129464 -9.783509 -11.479335 -0.172186 -2.665617 7.349594 -0.078462 0.734355 8.740032 1.601534 1.079135 -1.161428 1.568432 0.567686 -6.157575 -7.935002 -5.651909 -22.038037 6.557186 -7.023937 33.997983 2.881612 -2.733585 16.499771 0.000000 0.000000 0.000000 2.983835 1.530309 -21.769995 16.434660 -26.106354 3.835319 31.321187 -10.535638 -7.974667 0.000000 0.000000 0.000000 -7.125000 0.000000 0.000000 3.897636 39.264416 0.551849 0.000000 0.000000 0.000000 -5.038421 2.378936 10.011954 -16.916067 -26.746762 -4.049605 -17.973837 28.289417 13.320766 0.000000 0.000000 0.000000 7.125000 0.000000 0.000000 8.596387 43.789586 0.258856
